# xmcd
#
# Track frame offsets: 
#        160
#        22595
#        39250
#        57775
#        77400
#        94480
#        110775
#        127317
#        140640
#        157605
#        174802
#
# Disc length: 2562 seconds
#
# Revision: 0
# Processed by: cddbd v1.5.2PL0 Copyright (c) Steve Scherf et al.
# Submitted via: ExactAudioCopy v0.99pb4
#
DISCID=800a000b
DTITLE=Игорь Малинин - Из жизни провидений
DYEAR=1995
DGENRE=Chanson
TTITLE0=Штирлиц
TTITLE1=Компот
TTITLE2=Рога
TTITLE3=Карлсон
TTITLE4=Если ты в армии
TTITLE5=Вовочка
TTITLE6=Чукча
TTITLE7=Кокаин
TTITLE8=Фредди Крюгер
TTITLE9=Ночь
TTITLE10=Спид-инфо
EXTD=
EXTT0=
EXTT1=
EXTT2=
EXTT3=
EXTT4=
EXTT5=
EXTT6=
EXTT7=
EXTT8=
EXTT9=
EXTT10=
PLAYORDER=
